<svg width="350" height="56" viewBox="0 0 350 56" fill="none" xmlns="http://www.w3.org/2000/svg">
<path d="M13 55.32L0.2 54.872C0.2 53.1653 0.2 50.9467 0.2 48.216C0.242667 45.4853 0.264 42.4987 0.264 39.256C0.306667 36.0133 0.349333 32.7067 0.392 29.336C0.434667 25.9653 0.477333 22.7867 0.52 19.8C0.562667 16.7707 0.605333 14.1253 0.648 11.864C0.690667 9.60266 0.733334 7.98133 0.776 7C3.67733 7 6.74933 6.97866 9.992 6.936C13.2347 6.89333 16.392 6.85066 19.464 6.808C22.5787 6.72266 25.416 6.65866 27.976 6.616C30.536 6.53067 32.584 6.44533 34.12 6.36L33.864 12.632L12.232 11.736C12.4027 16.3013 12.5307 20.824 12.616 25.304L33.16 24.664L32.712 31.576L12.744 30.424C12.9147 39.0427 13 47.3413 13 55.32ZM64.6705 55.704C62.3665 49.9013 60.0198 45.0373 57.6305 41.112C55.2412 37.144 52.9798 34.328 50.8465 32.664C50.9318 36.248 50.9958 39.96 51.0385 43.8C51.0812 47.64 51.1025 51.416 51.1025 55.128C49.1825 55.128 47.1558 55.0853 45.0225 55C42.9318 54.9573 41.1185 54.9147 39.5825 54.872C39.5825 51.2453 39.5825 47.4693 39.5825 43.544C39.5825 39.6187 39.5612 35.7573 39.5185 31.96C39.5185 28.12 39.4972 24.536 39.4545 21.208C39.4118 17.88 39.3692 14.9787 39.3265 12.504C39.3265 10.0293 39.3052 8.19466 39.2625 7C41.4385 6.65866 43.5932 6.424 45.7265 6.296C47.9025 6.12533 49.9292 6.04 51.8065 6.04C56.5852 6.04 60.7665 6.552 64.3505 7.576C67.9345 8.55733 70.7292 9.98666 72.7345 11.864C74.7398 13.6987 75.7425 15.9387 75.7425 18.584C75.7425 20.504 75.2092 22.3387 74.1425 24.088C73.1185 25.8373 71.7105 27.352 69.9185 28.632C68.1265 29.912 66.0998 30.808 63.8385 31.32C64.5212 32.1307 65.3745 33.2827 66.3985 34.776C67.4225 36.2267 68.4892 37.8693 69.5985 39.704C70.7505 41.496 71.8598 43.3093 72.9265 45.144C73.9932 46.9787 74.9532 48.7067 75.8065 50.328C76.6598 51.9067 77.2785 53.1867 77.6625 54.168C76.9798 54.296 76.0412 54.4453 74.8465 54.616C73.6945 54.7867 72.4572 54.936 71.1345 55.064C69.8545 55.2347 68.6172 55.3627 67.4225 55.448C66.2705 55.576 65.3532 55.6613 64.6705 55.704ZM50.0785 11.032C50.2065 12.952 50.3345 15.576 50.4625 18.904C50.5905 22.232 50.7185 25.944 50.8465 30.04C55.0705 29.8693 58.3985 28.9947 60.8305 27.416C63.3052 25.7947 64.5425 23.6613 64.5425 21.016C64.5425 19.096 63.9025 17.3893 62.6225 15.896C61.3852 14.36 59.6785 13.1653 57.5025 12.312C55.3265 11.4587 52.8518 11.032 50.0785 11.032ZM117.153 55.32C115.66 55.192 113.27 55.0853 109.985 55C106.742 54.872 102.838 54.7867 98.273 54.744C93.7503 54.7013 88.8223 54.68 83.489 54.68C83.4037 53.4853 83.297 51.672 83.169 49.24C83.0837 46.7653 82.977 43.9493 82.849 40.792C82.721 37.6347 82.593 34.3493 82.465 30.936C82.337 27.5227 82.2303 24.2373 82.145 21.08C82.0597 17.88 81.9743 15.0427 81.889 12.568C81.8463 10.0933 81.825 8.23733 81.825 7C83.7023 7 85.857 7 88.289 7C90.7637 6.95733 93.345 6.91466 96.033 6.872C98.721 6.82933 101.388 6.78667 104.033 6.744C106.678 6.65866 109.132 6.59466 111.393 6.552C113.697 6.46666 115.638 6.40266 117.217 6.36L117.473 13.208L94.625 12.44C94.625 14.9573 94.625 17.5173 94.625 20.12C94.625 22.68 94.6463 25.1973 94.689 27.672L116.193 26.968L115.937 34.008L94.753 33.112C94.7957 36.1413 94.8383 39.0213 94.881 41.752C94.9237 44.4827 94.9877 46.9573 95.073 49.176L117.409 48.408L117.153 55.32ZM157.903 55.32C156.41 55.192 154.02 55.0853 150.735 55C147.492 54.872 143.588 54.7867 139.023 54.744C134.5 54.7013 129.572 54.68 124.239 54.68C124.154 53.4853 124.047 51.672 123.919 49.24C123.834 46.7653 123.727 43.9493 123.599 40.792C123.471 37.6347 123.343 34.3493 123.215 30.936C123.087 27.5227 122.98 24.2373 122.895 21.08C122.81 17.88 122.724 15.0427 122.639 12.568C122.596 10.0933 122.575 8.23733 122.575 7C124.452 7 126.607 7 129.039 7C131.514 6.95733 134.095 6.91466 136.783 6.872C139.471 6.82933 142.138 6.78667 144.783 6.744C147.428 6.65866 149.882 6.59466 152.143 6.552C154.447 6.46666 156.388 6.40266 157.967 6.36L158.223 13.208L135.375 12.44C135.375 14.9573 135.375 17.5173 135.375 20.12C135.375 22.68 135.396 25.1973 135.439 27.672L156.943 26.968L156.687 34.008L135.503 33.112C135.546 36.1413 135.588 39.0213 135.631 41.752C135.674 44.4827 135.738 46.9573 135.823 49.176L158.159 48.408L157.903 55.32ZM163.645 55.128C163.645 49.24 163.624 43.7147 163.581 38.552C163.581 33.3467 163.56 28.632 163.517 24.408C163.517 20.184 163.496 16.5787 163.453 13.592C163.41 10.6053 163.368 8.408 163.325 7C165.842 6.65866 168.125 6.40267 170.173 6.232C172.264 6.06133 174.226 5.976 176.061 5.976C181.096 5.976 185.426 6.59466 189.053 7.832C192.722 9.02666 195.538 10.776 197.501 13.08C199.464 15.3413 200.445 18.0507 200.445 21.208C200.445 24.536 199.357 27.5227 197.181 30.168C195.048 32.8133 192.061 34.9253 188.221 36.504C184.424 38.0827 180.029 38.9573 175.037 39.128C175.08 41.7733 175.101 44.4187 175.101 47.064C175.144 49.7093 175.165 52.312 175.165 54.872C173.714 54.9573 172.05 55.0213 170.173 55.064C168.338 55.1067 166.162 55.128 163.645 55.128ZM174.141 11.032C174.312 13.3787 174.461 16.5787 174.589 20.632C174.76 24.6853 174.888 29.1227 174.973 33.944C184.061 32.7067 188.605 28.9093 188.605 22.552C188.605 19.0107 187.304 16.216 184.701 14.168C182.098 12.0773 178.578 11.032 174.141 11.032ZM239.028 55.32C237.535 55.192 235.145 55.0853 231.86 55C228.617 54.872 224.713 54.7867 220.148 54.744C215.625 54.7013 210.697 54.68 205.364 54.68C205.279 53.4853 205.172 51.672 205.044 49.24C204.959 46.7653 204.852 43.9493 204.724 40.792C204.596 37.6347 204.468 34.3493 204.34 30.936C204.212 27.5227 204.105 24.2373 204.02 21.08C203.935 17.88 203.849 15.0427 203.764 12.568C203.721 10.0933 203.7 8.23733 203.7 7C205.577 7 207.732 7 210.164 7C212.639 6.95733 215.22 6.91466 217.908 6.872C220.596 6.82933 223.263 6.78667 225.908 6.744C228.553 6.65866 231.007 6.59466 233.268 6.552C235.572 6.46666 237.513 6.40266 239.092 6.36L239.348 13.208L216.5 12.44C216.5 14.9573 216.5 17.5173 216.5 20.12C216.5 22.68 216.521 25.1973 216.564 27.672L238.068 26.968L237.812 34.008L216.628 33.112C216.671 36.1413 216.713 39.0213 216.756 41.752C216.799 44.4827 216.863 46.9573 216.948 49.176L239.284 48.408L239.028 55.32ZM272.354 55.128C271.287 55.128 269.965 55.1067 268.386 55.064C266.85 55.064 265.271 55.0427 263.65 55C262.071 54.9573 260.685 54.9147 259.49 54.872C259.49 52.952 259.49 50.6053 259.49 47.832C259.533 45.016 259.554 42.008 259.554 38.808C259.597 35.5653 259.618 32.344 259.618 29.144C259.661 25.9013 259.703 22.872 259.746 20.056C259.789 17.1973 259.831 14.7653 259.874 12.76C256.674 12.8027 253.559 12.8453 250.53 12.888C247.501 12.888 244.727 12.888 242.21 12.888L242.466 6.488C245.197 6.488 248.141 6.50933 251.298 6.552C254.455 6.552 257.677 6.57333 260.962 6.616C264.247 6.616 267.426 6.63733 270.498 6.68C273.613 6.68 276.471 6.70133 279.074 6.744C281.677 6.744 283.874 6.76533 285.666 6.808C287.501 6.808 288.738 6.82933 289.378 6.872L289.57 12.248C287.223 12.3333 284.535 12.4187 281.506 12.504C278.477 12.5467 275.298 12.5893 271.97 12.632C272.013 14.552 272.055 16.856 272.098 19.544C272.141 22.232 272.162 25.1547 272.162 28.312C272.205 31.4267 272.226 34.584 272.226 37.784C272.269 40.984 272.29 44.0773 272.29 47.064C272.333 50.0507 272.354 52.7387 272.354 55.128ZM299.588 20.184L296.836 17.56L300.292 13.848C299.524 12.7387 298.607 11.5867 297.54 10.392C296.473 9.19733 295.193 7.93866 293.7 6.616C294.809 5.42133 296.047 4.248 297.412 3.096C298.777 1.90133 300.036 0.898664 301.188 0.0879974C302.681 2.008 304.089 3.94933 305.412 5.912C306.735 7.87467 307.951 9.85867 309.06 11.864C307.609 13.0587 306.052 14.3813 304.388 15.832C302.724 17.2827 301.124 18.7333 299.588 20.184ZM330.055 55.32C327.708 55.32 325.276 55 322.759 54.36C320.284 53.72 317.916 52.8453 315.655 51.736C313.436 50.584 311.559 49.2827 310.023 47.832C311.004 46.424 312.092 45.016 313.286 43.608C314.481 42.1573 315.804 40.728 317.255 39.32C318.919 41.112 320.753 42.776 322.759 44.312C324.764 45.8053 326.769 47.0213 328.775 47.96C330.823 48.8987 332.7 49.368 334.407 49.368C335.943 49.368 337.308 48.9627 338.503 48.152C339.74 47.2987 340.359 46.0827 340.359 44.504C340.359 43.0107 339.783 41.688 338.631 40.536C337.479 39.3413 335.964 38.2533 334.087 37.272C332.252 36.248 330.289 35.2453 328.199 34.264C326.364 33.4107 324.551 32.5147 322.759 31.576C320.967 30.6373 319.324 29.6133 317.831 28.504C316.38 27.3947 315.207 26.1573 314.311 24.792C313.457 23.384 313.031 21.8053 313.031 20.056C313.031 18.3067 313.479 16.6 314.375 14.936C315.313 13.272 316.615 11.7787 318.279 10.456C319.943 9.09066 321.905 8.024 324.167 7.256C326.471 6.44533 328.988 6.04 331.719 6.04C334.833 6.04 337.969 6.57333 341.127 7.64C344.327 8.70667 347.1 10.2427 349.447 12.248C348.679 13.6987 347.633 15.128 346.311 16.536C345.031 17.944 343.772 19.1387 342.535 20.12C339.932 17.6453 337.351 15.576 334.791 13.912C332.231 12.2053 329.82 11.352 327.559 11.352C325.895 11.352 324.636 11.7787 323.783 12.632C322.972 13.4427 322.567 14.3173 322.567 15.256C322.567 16.28 323.036 17.2187 323.975 18.072C324.913 18.9253 326.151 19.7573 327.687 20.568C329.223 21.3787 330.908 22.2107 332.743 23.064C334.663 23.96 336.604 24.92 338.567 25.944C340.572 26.968 342.407 28.1413 344.071 29.464C345.777 30.744 347.143 32.216 348.167 33.88C349.191 35.544 349.703 37.4427 349.703 39.576C349.703 41.7093 349.169 43.736 348.103 45.656C347.079 47.5333 345.649 49.1973 343.815 50.648C342.023 52.0987 339.932 53.2507 337.543 54.104C335.196 54.9147 332.7 55.32 330.055 55.32Z" fill="url(#paint0_linear_122_3)"/>
<defs>
<linearGradient id="paint0_linear_122_3" x1="174" y1="-19" x2="174" y2="74" gradientUnits="userSpaceOnUse">
<stop offset="0.598168" stop-color="#3A98B9"/>
<stop offset="1" stop-color="#3A98B9" stop-opacity="0"/>
</linearGradient>
</defs>
</svg>
